<svg xmlns="http://www.w3.org/2000/svg" enable-background="new 0 0 192 192" height="192" viewBox="0 0 192 192" width="192"><rect fill="none" height="192" width="192"/><g><polygon fill="#FFFFFF" points="119,143 96.37,143 73,143 73,96 73,49 96.37,49 119,49 119,96"/><path d="M76,8H44c-6.63,0-12,5.37-12,12v32v44v44l20.15,3L76,140V96V52h40l3-22l-3-22H76z" fill="#FBBC04"/><path d="M76,140H32v32c0,6.63,5.37,12,12,12h32l3-22L76,140z" fill="#188038"/><path d="M160,140l-22-3l-22,3l-3,21l3,23h32c6.63,0,12-5.37,12-12V140z" fill="#1967D2"/><rect fill="#34A853" height="44" width="40" x="76" y="140"/><polygon fill="#4285F4" points="116,52 116,96 116,140 160,140 160,96 160,52 136.7,49"/><polygon fill="#EA4335" points="116,8 116,52 160,52"/></g></svg>